
<svg xmlns="http://www.w3.org/2000/svg" version="1.1" xmlns:xlink="http://www.w3.org/1999/xlink" preserveAspectRatio="none" x="0px" y="0px" width="4059px" height="2842px" viewBox="0 0 4059 2842">
<defs>
<linearGradient id="Gradient_1" gradientUnits="userSpaceOnUse" x1="52.89999999999999" y1="71.15" x2="200.8" y2="71.15" spreadMethod="reflect">
<stop  offset="0%" stop-color="#7A09FA"/>

<stop  offset="100%" stop-color="#FDD2ED"/>
</linearGradient>

<g id="Layer5_0_FILL">
<path fill="#131313" stroke="none" d="
M 249 73.15
L 247.4 71.25 126.2 0.4 124 0 121.65 0.4 0.55 71.25 0 71.75 0.55 213.8 1.8 215.4 121.3 285.05 126.7 285.05 245.9 216.95 247.4 213.8 249 73.15 Z"/>
</g>

<g id="Layer4_0_FILL">
<path fill="#FFFFFF" stroke="none" d="
M 123.8 12.35
L 12.85 76.4 12.85 204.45 123.8 268.5 234.7 204.45 234.7 76.4 123.8 12.35 Z"/>
</g>

<g id="Layer3_0_FILL">
<path fill="#131313" stroke="none" d="
M 126.9 228.5
Q 126.85 228.35 126.8 228.15 126.65 227.95 126.55 227.8 126.45 227.6 126.3 227.45 126.1 227.25 125.95 227.05 125.65 226.9 125.35 226.7 124.85 226.55 124.35 226.45 124.35 226.5 124.35 226.55 124 226.55 123.65 226.55 123.45 226.65 123.25 226.7 123.1 226.8 122.9 226.95 122.65 227.1 122.4 227.3 122.3 227.5 122.15 227.65 122.05 227.85 121.95 228.05 121.85 228.2 121.8 228.4 121.8 228.6 121.8 228.75 121.75 228.95 121.7 229.15 121.7 229.3 121.7 229.5 121.65 229.7 121.55 229.85 121.55 230.05 121.55 230.2 121.5 230.4 121.45 230.6 121.4 230.75 121.3 230.95 121.3 231.15 121.3 231.3 121.2 231.5 121.1 231.7 121 231.85 120.95 232.05 120.95 232.25 120.95 232.4 120.95 232.6 120.95 232.8 120.9 232.95 120.85 233.15 120.85 233.3 120.85 233.5 120.75 233.7 120.7 233.85 120.7 234.05 120.7 234.25 120.65 234.4 120.6 234.6 120.6 234.8 120.6 234.95 120.55 235.15 120.45 235.35 120.45 235.5 120.45 235.7 120.4 235.9 120.35 236.05 120.35 236.25 120.35 236.4 120.3 236.6 120.25 236.8 120.15 236.95 120.1 237.15 120.1 237.35 120.1 237.5 120.05 237.7 120 237.9 120 238.05 120 238.25 119.9 238.45 119.85 238.6 119.8 238.8 119.75 239 119.75 239.15 119.75 239.35 119.7 239.5 119.6 239.7 119.55 239.9 119.5 240.05 119.5 240.25 119.5 240.45 119.45 240.6 119.4 240.8 119.4 241 119.4 241.15 119.3 241.35 119.25 241.55 119.25 241.7 119.25 241.9 119.2 242.1 119.15 242.25 119.05 242.45 119 242.65 119 242.8 119 243 118.95 243.15 118.9 243.35 118.85 243.55 118.75 243.7 118.75 243.9 118.75 244.1 118.7 244.25 118.65 244.45 118.65 244.65 118.65 244.8 118.6 245 118.55 245.2 118.55 245.35 118.55 245.55 118.45 245.75 118.4 245.9 118.4 246.1 118.4 246.25 118.35 246.45 118.3 246.65 118.3 246.8 118.3 247 118.2 247.2 118.15 247.35 118.1 247.55 118.05 247.75 118.05 247.9 118.05 248.1 118 248.3 117.9 248.45 117.9 248.65 117.9 248.85 117.85 249 117.8 249.2 117.75 249.35 117.65 249.55 117.65 249.75 117.65 249.9 117.65 250.1 117.65 250.3 117.6 250.45 117.55 250.65 117.55 250.85 117.55 251 117.5 251.2 117.45 251.4 117.45 251.55 117.45 251.75 117.45 251.95 117.45 252.1 117.35 252.3 117.3 252.45 117.3 252.65 117.3 252.85 117.3 253 117.3 253.2 117.25 253.4 117.2 253.55 117.2 253.75 117.2 253.95 117.2 254.1 117.2 254.3 117.15 254.5 117.05 254.65 117.05 254.85 117.05 255.05 117.05 255.2 117.05 255.4 117.05 255.6 117.05 255.75 117 255.95 116.95 256.1 116.95 256.3 116.95 256.5 116.95 256.65 116.95 256.85 116.95 257.05 116.95 257.2 116.95 257.4 116.95 257.6 116.9 257.75 116.8 257.95 116.8 258.15 116.8 258.3 116.8 258.5 116.8 258.7 116.8 258.85 116.8 259.05 116.8 259.2 116.8 259.4 116.8 259.6 116.8 259.75 116.8 259.95 116.8 260.15 116.8 260.3 116.8 260.5 116.8 260.7 116.8 260.85 116.8 261.05 116.8 261.25 116.8 261.4 116.8 261.6 116.8 261.8 116.8 261.95 116.8 262.15 116.8 262.3 116.8 262.5 116.8 262.7 116.8 262.85 116.8 263.05 116.8 263.25 116.8 263.4 116.8 263.6 116.8 263.8 116.8 263.95 116.8 264.15 116.8 264.35 116.8 264.5 116.8 264.7 116.8 264.9 116.8 265.05 116.8 265.25 116.8 265.4 116.8 265.6 116.8 265.8 116.8 265.95 116.9 266.15 116.95 266.35 116.95 266.5 116.95 266.7 116.95 266.9 116.95 267.05 117 267.25 117.05 267.45 117.05 267.6 117.05 267.8 117.15 268 117.2 268.15 117.25 268.35 117.3 268.55 117.3 268.7 117.3 268.9 117.35 269.05 117.45 269.25 117.5 269.45 117.55 269.6 117.65 269.8 117.8 270 117.85 270.15 117.9 270.35 118.05 270.55 118.15 270.7 118.2 270.9 118.3 271.1 118.45 271.25 118.65 271.45 118.75 271.65 118.9 271.8 119 272 119.15 272.15 119.3 272.35 119.5 272.55 119.75 272.7 120 272.9 120.25 273.1 120.45 273.25 120.7 273.45 120.95 273.65 121.25 273.8 121.55 274 121.8 274.2 122.05 274.35 122.1 274.55 122.15 274.75 122.3 274.9 122.4 275.1 122.55 275.25 122.65 275.45 122.8 275.65 122.9 275.8 123.15 276 123.4 276.2 123.9 276.3 124.35 276.45 124.65 276.35 124.95 276.3 125.15 276.25 125.35 276.2 125.45 276.05 125.6 275.95 125.75 275.75 125.95 275.6 126.05 275.4 126.2 275.2 126.25 275.05 126.3 274.85 126.3 274.65 126.3 274.5 126.55 274.3 126.8 274.1 127.1 273.95 127.4 273.75 127.7 273.55 128 273.4 128.25 273.2 128.5 273 128.75 272.85 129 272.65 129.15 272.5 129.35 272.3 129.55 272.1 129.7 271.95 129.85 271.75 129.95 271.55 130.1 271.4 130.2 271.2 130.3 271 130.45 270.85 130.55 270.65 130.7 270.45 130.75 270.3 130.8 270.1 130.85 269.9 130.95 269.75 131.05 269.55 131.15 269.4 131.25 269.2 131.3 269 131.35 268.85 131.4 268.65 131.4 268.45 131.4 268.3 131.5 268.1 131.55 267.9 131.6 267.75 131.65 267.55 131.65 267.35 131.65 267.2 131.7 267 131.8 266.8 131.8 266.65 131.8 266.45 131.8 266.3 131.8 266.1 131.85 265.9 131.9 265.75 131.9 265.55 131.9 265.35 131.9 265.2 131.9 265 131.9 264.8 131.9 264.65 131.9 264.45 131.9 264.25 131.9 264.1 131.9 263.9 131.9 263.7 131.9 263.55 131.9 263.35 131.9 263.2 131.9 263 131.9 262.8 131.9 262.65 131.9 262.45 131.9 262.25 131.9 262.1 131.9 261.9 131.9 261.7 131.9 261.55 131.9 261.35 131.9 261.15 131.9 261 131.9 260.8 131.9 260.6 131.9 260.45 131.9 260.25 131.9 260.05 131.9 259.9 131.9 259.7 131.9 259.55 131.9 259.35 131.9 259.15 131.9 259 131.9 258.8 131.9 258.6 131.9 258.45 131.9 258.25 131.9 258.05 131.85 257.9 131.8 257.7 131.8 257.5 131.8 257.35 131.8 257.15 131.8 256.95 131.8 256.8 131.8 256.6 131.8 256.45 131.8 256.25 131.7 256.05 131.65 255.9 131.65 255.7 131.65 255.5 131.65 255.35 131.65 255.15 131.65 254.95 131.65 254.8 131.6 254.6 131.55 254.4 131.55 254.25 131.55 254.05 131.55 253.85 131.55 253.7 131.5 253.5 131.4 253.35 131.4 253.15 131.4 252.95 131.4 252.8 131.4 252.6 131.35 252.4 131.3 252.25 131.3 252.05 131.3 251.85 131.25 251.7 131.15 251.5 131.15 251.3 131.15 251.15 131.15 250.95 131.15 250.75 131.1 250.6 131.05 250.4 131.05 250.25 131.05 250.05 131 249.85 130.95 249.7 130.95 249.5 130.95 249.3 130.85 249.15 130.8 248.95 130.8 248.75 130.8 248.6 130.75 248.4 130.7 248.2 130.6 248.05 130.55 247.85 130.55 247.65 130.55 247.5 130.5 247.3 130.45 247.1 130.45 246.95 130.45 246.75 130.4 246.6 130.3 246.4 130.25 246.2 130.2 246.05 130.2 245.85 130.2 245.65 130.2 245.5 130.2 245.3 130.15 245.1 130.1 244.95 130 244.75 129.95 244.55 129.95 244.4 129.95 244.2 129.9 244 129.85 243.85 129.85 243.65 129.85 243.5 129.75 243.3 129.7 243.1 129.7 242.95 129.7 242.75 129.65 242.55 129.6 242.4 129.55 242.2 129.45 242 129.45 241.85 129.45 241.65 129.4 241.45 129.35 241.3 129.3 241.1 129.25 240.9 129.25 240.75 129.25 240.55 129.15 240.4 129.1 240.2 129.1 240 129.1 239.85 129.05 239.65 129 239.45 128.9 239.3 128.85 239.1 128.85 238.9 128.85 238.75 128.8 238.55 128.75 238.35 128.75 238.2 128.75 238 128.7 237.8 128.6 237.65 128.55 237.45 128.5 237.3 128.5 237.1 128.5 236.9 128.45 236.75 128.35 236.55 128.35 236.35 128.35 236.2 128.3 236 128.25 235.8 128.25 235.65 128.25 235.45 128.2 235.25 128.15 235.1 128.15 234.9 128.15 234.7 128.05 234.55 128 234.35 128 234.15 128 234 127.95 233.8 127.9 233.65 127.9 233.45 127.9 233.25 127.85 233.1 127.75 232.9 127.75 232.7 127.75 232.55 127.7 232.35 127.65 232.15 127.6 232 127.5 231.8 127.45 231.6 127.4 231.45 127.35 231.25 127.3 231.05 127.3 230.9 127.3 230.7 127.2 230.55 127.15 230.35 127.15 230.15 127.15 230 127.1 229.8 127.05 229.6 127.05 229.45 127.05 229.25 127 229.05 126.9 228.9 126.9 228.7 126.9 228.5
M 18.05 73.55
Q 15.55 72.35 14.35 71.6 12.1 70.25 11.3 70 9.85 69.55 8.3 69.9 6.75 70.3 5.75 71.35 4.75 72.45 4.6 74.05 4.45 75.7 5.3 76.9 6.1 78 8.4 79.2 20.3 85.3 32.75 89.7 35.65 90.8 38 91.2 39.65 91.5 40.7 91.1 42.25 90.55 42.35 89.15 42.4 88.35 41.6 87.05 40.8 85.7 40.05 84.95 39.35 84.2 37.4 82.9 33.9 80.6 31.8 79.6 31.15 79.3 26.85 77.6 23.85 76.45 18.05 73.55
M 238.15 72.2
Q 233.85 71.4 231.1 72.8 229.9 73.4 228.5 74.75 227 76.4 226.2 77.15 225.3 78.05 223.3 79.7 221.3 81.3 220.35 82.2 219.3 83.25 218.75 83.75 217.8 84.65 217.05 85.15 215.95 85.8 215.4 86.2 214.5 86.8 214.1 87.5 213.45 88.75 214.1 89.95 214.85 91.15 216.2 91.25 217 91.35 218.8 90.5 223.3 88.3 227.85 86.35 232.5 84.4 233.9 83.75 237.25 82.1 239.5 80.35 241.25 79 241.9 77.65 242.9 75.75 241.95 74.2 241.05 72.7 238.15 72.2 Z"/>
</g>

<g id="Layer2_0_FILL">
<path fill="#7A09FA" stroke="none" d="
M 37.05 69.6
Q 36.2 70.35 35.85 70.95 35.4 71.75 35.5 72.7 35.6 73.65 36.2 74.3 36.55 74.7 37.25 75.15 41.05 78 43.9 79.65 44.9 80.2 45.4 80.25 46.55 80.4 47.3 79.5 48 78.55 47.6 77.45 47.3 76.75 46.25 75.85
L 43.25 73.3
Q 42.4 72.65 42.1 72.05 43 71.15 44.85 69.85 46.9 68.4 47.65 67.75 48.55 66.95 48.8 66.4 49.2 65.25 48.65 64.3 48 63.3 46.8 63.3 46.1 63.3 44.9 64 40.05 66.9 37.05 69.6 Z"/>

<path fill="#FDD2ED" stroke="none" d="
M 201.85 64.7
Q 201.05 65.5 201.2 66.4 201.35 67.4 203.05 68.55
L 207.1 71.1
Q 208.9 72.2 209.85 72.7 206.8 75.45 201.25 78.6 200.05 79.25 199.6 79.9 198.95 80.75 199.25 81.7 199.5 82.7 200.5 83.1 201.5 83.45 203.1 82.65 204.75 81.8 206.95 80.3 210.95 77.7 212.75 76.1 214.15 74.8 214.6 73.75 215.4 72.2 214.55 70.9 214.2 70.25 213.15 69.6 212 68.85 209.45 67.45 206.95 66.15 205.7 65.3 204.4 64.4 203.65 64.25 202.6 64.1 201.85 64.7 Z"/>

<path fill="url(#Gradient_1)" stroke="none" d="
M 191.5 69.9
Q 189.45 69.9 187.45 69.9 183.7 69.9 180 69.9 177.05 69.9 174.15 69.9 150.35 69.9 126.6 69.9 126.6 69.85 126.6 69.8 126.6 69.7 126.6 69.6 126.6 69.45 126.6 69.35 126.6 69.2 126.6 69.1 126.6 69 126.6 68.85 126.6 68.75 126.6 68.65 126.6 68.5 126.6 68.4 126.6 68.25 126.6 68.15 126.6 68.05 126.6 67.9 126.6 67.8 126.6 67.65 126.6 67.55 126.6 67.45 126.6 67.3 126.6 67.2 126.6 67.1 126.6 66.95 126.6 66.85 126.6 66.7 126.6 66.6 126.6 66.5 126.6 66.35 126.6 66.25 126.6 66.1 126.6 66 126.6 65.9 126.6 65.75 126.6 65.65 126.6 65.55 126.6 65.4 126.6 65.3 126.6 65.15 126.6 65.05 126.6 64.95 126.6 64.8 126.6 64.7 126.6 64.55 126.6 64.45 126.6 64.35 126.6 64.2 126.6 64.1 126.6 64 126.6 63.85 126.6 63.75 126.6 63.6 126.6 63.5 126.6 63.4 126.6 63.25 126.6 63.15 126.6 63 126.6 62.9 126.6 62.8 126.6 62.65 126.6 62.55 126.6 62.45 126.6 62.3 126.6 62.2 126.6 62.05 126.6 61.95 126.6 61.85 126.6 61.7 126.6 61.6 126.6 61.45 126.6 61.35 126.6 61.25 126.6 61.1 126.6 61 126.6 60.9 126.6 60.75 126.6 60.65 126.6 60.5 126.6 60.4 126.6 60.3 126.6 60.15 126.6 60.05 126.6 59.9 126.6 59.8 126.6 59.7 126.6 59.55 126.6 59.45 126.6 59.35 126.6 59.2 126.6 59.1 126.6 58.95 126.6 58.85 126.6 58.75 126.6 58.6 126.6 58.5 126.6 58.35 126.6 58.25 126.6 58.15 126.6 58 126.6 57.9 126.6 57.8 126.6 57.65 126.6 57.55 126.6 57.4 126.6 57.3 126.6 57.2 126.6 57.05 126.6 56.95 126.6 56.8 126.6 56.7 126.6 56.6 126.6 56.45 126.6 56.35 126.6 56.25 126.6 56.1 126.6 56 126.55 55.85 126.5 55.75 126.5 55.65 126.5 55.5 126.5 55.4 126.5 55.25 126.5 55.15 126.5 55.05 126.5 54.9 126.5 54.8 126.5 54.7 126.5 54.55 126.5 54.45 126.5 54.3 126.5 54.2 126.5 54.1 126.5 53.95 126.5 53.85 126.5 53.7 126.5 53.6 126.5 53.5 126.5 53.35 126.5 53.25 126.5 53.15 126.5 53 126.5 52.9 126.5 52.75 126.5 52.65 126.5 52.55 126.5 52.4 126.5 52.3 126.5 52.15 126.5 52.05 126.5 51.95 126.5 51.8 126.5 51.7 126.5 51.6 126.5 51.45 126.5 51.35 126.5 51.2 126.5 51.1 126.5 51 126.5 50.85 126.5 50.75 126.5 50.6 126.5 50.5 126.5 50.4 126.5 50.25 126.5 50.15 126.5 50.05 126.5 49.9 126.5 49.8 126.5 49.65 126.5 49.55 126.5 49.45 126.5 49.3 126.5 49.2 126.5 49.05 126.5 48.95 126.5 48.85 126.5 48.7 126.5 48.6 126.5 48.5 126.5 48.35 126.5 48.25 126.5 48.1 126.5 48 126.5 47.9 126.5 47.75 126.5 47.65 126.5 47.5 126.5 47.4 126.5 47.3 126.5 47.15 126.5 47.05 126.5 46.95 126.5 46.8 126.5 46.7 126.45 46.55 126.4 46.45 126.4 46.35 126.4 46.2 126.4 46.1 126.4 45.95 126.4 45.85 126.4 45.75 126.4 45.6 126.4 45.5 126.4 45.4 126.4 45.25 126.4 45.15 126.4 45 126.4 44.9 126.4 44.8 126.4 44.65 126.4 44.55 126.4 44.4 126.4 44.3 126.4 44.2 126.4 44.05 126.4 43.95 126.4 43.85 126.4 43.7 126.4 43.6 126.4 43.45 126.4 43.35 126.4 43.25 126.4 43.1 126.4 43 126.4 42.85 126.4 42.75 126.4 42.65 126.4 42.5 126.4 42.4 126.4 42.3 126.4 42.15 126.4 42.05 126.4 41.9 126.4 41.8 126.4 41.7 126.4 41.55 126.4 41.45 126.4 41.3 126.35 41.2 126.35 41.1 126.35 40.95 126.35 40.85 126.35 40.75 126.35 40.6 126.35 40.5 126.35 40.35 126.35 40.25 126.35 40.15 126.35 40 126.35 39.9 126.35 39.75 126.35 39.65 126.35 39.55 126.35 39.4 126.35 39.3 126.35 39.2 126.35 39.05 126.35 38.95 126.35 38.8 126.35 38.7 126.35 38.6 126.35 38.45 126.35 38.35 126.3 38.2 126.25 38.1 126.25 38 126.25 37.85 126.25 37.75 126.25 37.65 126.25 37.5 126.25 37.4 126.25 37.25 126.25 37.15 126.25 37.05 126.25 36.9 126.25 36.8 126.25 36.65 126.25 36.55 126.25 36.45 126.25 36.3 126.25 36.2 126.25 36.1 126.25 35.95 126.25 35.85 126.25 35.7 126.25 35.6 126.25 35.5 126.25 35.35 126.25 35.25 126.25 35.1 126.25 35 126.25 34.9 126.25 34.75 126.2 34.65 126.2 34.55 126.2 34.4 126.2 34.3 126.2 34.15 126.2 34.05 126.2 33.95 126.2 33.8 126.2 33.7 126.2 33.55 126.2 33.45 126.2 33.35 126.2 33.2 126.2 33.1 126.2 33 126.2 32.85 126.2 32.75 126.2 32.6 126.2 32.5 126.2 32.4 126.2 32.25 126.2 32.15 126.2 32 126.2 31.9 126.15 31.8 126.1 31.65 126.1 31.55 126.1 31.45 126.1 31.3 126.1 31.2 126.1 31.05 126.1 30.95 126.1 30.85 126.1 30.7 126.1 30.6 126.1 30.45 126.1 30.35 126.1 30.25 126.1 30.1 126.1 30 126.1 29.9 126.1 29.75 126.1 29.65 126.1 29.5 126.1 29.4 126.1 29.3 126.1 29.15 126.1 29.05 126.05 28.9 126 28.8 126 28.7 126 28.55 126 28.45 126 28.35 126 28.2 126 28.1 126 27.95 126 27.85 126 27.75 126 27.6 126 27.5 126 27.35 126 27.25 126 27.15 126 27 126 26.9 126 26.8 126 26.65 126 26.55 126 26.4 126 26.3 126 26.2 126 26.05 125.95 25.95 125.95 25.8 125.95 25.7 125.95 25.6 125.95 25.45 125.95 25.35 125.95 25.25 125.95 25.1 125.95 25 125.95 24.85 125.95 24.75 125.95 24.65 125.95 24.5 125.95 24.4 125.95 24.25 125.95 24.15 125.95 24.05 125.9 23.9 125.85 23.8 125.85 23.7 125.85 23.55 125.85 23.45 125.85 23.3 125.85 23.2 125.85 23.1 125.85 22.95 125.85 22.85 125.85 22.7 125.85 22.6 125.85 22.5 125.85 22.35 125.85 22.25 125.85 22.15 125.85 22 125.85 21.9 125.85 21.75 125.85 21.65 125.85 21.55 125.85 21.4 125.85 21.3 125.85 21.15 125.8 21.05 125.8 20.95 125.8 20.8 125.8 20.7 125.8 20.6 125.8 20.45 125.8 20.35 125.8 20.2 125.8 20.1 125.8 20 125.8 19.85 125.8 19.75 125.8 19.6 125.8 19.5 125.8 19.4 125.8 19.25 125.8 19.15 125.8 19.05 125.8 18.9 125.8 18.8 125.75 18.65 125.7 18.55 125.7 18.45 125.7 18.3 125.7 18.2 125.7 18.05 125.65 17.95 125.6 17.85 125.55 17.7 125.45 17.6 125.4 17.5 125.3 17.35 125.25 17.25 125.15 17.1 125 17 124.85 16.9 124.65 16.75 124.45 16.65 124.05 16.55 123.7 16.5
L 123.7 16.55
Q 123.3 16.6 122.9 16.65 122.7 16.75 122.5 16.9 122.4 17 122.3 17.1 122.15 17.25 122.05 17.35 121.95 17.5 121.9 17.6 121.85 17.7 121.8 17.85 121.75 17.95 121.75 18.05 121.75 18.2 121.75 18.3 121.7 18.45 121.65 18.55 121.65 18.65 121.65 18.8 121.65 18.9 121.65 19.05 121.65 19.15 121.65 19.25 121.65 19.4 121.65 19.5 121.65 19.6 121.65 19.75 121.65 19.85 121.65 20 121.65 20.1 121.65 20.2 121.65 20.35 121.65 20.45 121.65 20.6 121.65 20.7 121.65 20.8 121.65 20.95 121.6 21.05 121.55 21.15 121.55 21.3 121.55 21.4 121.55 21.55 121.55 21.65 121.55 21.75 121.55 21.9 121.55 22 121.55 22.15 121.55 22.25 121.55 22.35 121.55 22.5 121.55 22.6 121.55 22.7 121.55 22.85 121.55 22.95 121.55 23.1 121.55 23.2 121.55 23.3 121.55 23.45 121.55 23.55 121.55 23.7 121.5 23.8 121.5 23.9 121.5 24.05 121.5 24.15 121.5 24.25 121.5 24.4 121.5 24.5 121.5 24.65 121.5 24.75 121.5 24.85 121.5 25 121.5 25.1 121.5 25.25 121.5 25.35 121.5 25.45 121.5 25.6 121.5 25.7 121.5 25.8 121.5 25.95 121.45 26.05 121.4 26.2 121.4 26.3 121.4 26.4 121.4 26.55 121.4 26.65 121.4 26.8 121.4 26.9 121.4 27 121.4 27.15 121.4 27.25 121.4 27.35 121.4 27.5 121.4 27.6 121.4 27.75 121.4 27.85 121.4 27.95 121.4 28.1 121.4 28.2 121.4 28.35 121.4 28.45 121.4 28.55 121.35 28.7 121.35 28.8 121.35 28.9 121.35 29.05 121.35 29.15 121.35 29.3 121.35 29.4 121.35 29.5 121.35 29.65 121.35 29.75 121.35 29.9 121.35 30 121.35 30.1 121.35 30.25 121.35 30.35 121.35 30.45 121.35 30.6 121.35 30.7 121.35 30.85 121.35 30.95 121.35 31.05 121.35 31.2 121.35 31.3 121.35 31.45 121.3 31.55 121.25 31.65 121.25 31.8 121.25 31.9 121.25 32 121.25 32.15 121.25 32.25 121.25 32.4 121.25 32.5 121.25 32.6 121.25 32.75 121.25 32.85 121.25 33 121.25 33.1 121.25 33.2 121.25 33.35 121.25 33.45 121.25 33.55 121.25 33.7 121.25 33.8 121.25 33.95 121.25 34.05 121.25 34.15 121.25 34.3 121.25 34.4 121.25 34.55 121.2 34.65 121.15 34.75 121.15 34.9 121.15 35 121.15 35.1 121.15 35.25 121.15 35.35 121.15 35.5 121.15 35.6 121.15 35.7 121.15 35.85 121.15 35.95 121.15 36.1 121.15 36.2 121.15 36.3 121.15 36.45 121.15 36.55 121.15 36.65 121.15 36.8 121.15 36.9 121.15 37.05 121.15 37.15 121.15 37.25 121.15 37.4 121.15 37.5 121.15 37.65 121.15 37.75 121.15 37.85 121.15 38 121.1 38.1 121.1 38.2 121.1 38.35 121.1 38.45 121.1 38.6 121.1 38.7 121.1 38.8 121.1 38.95 121.1 39.05 121.1 39.2 121.1 39.3 121.1 39.4 121.1 39.55 121.1 39.65 121.1 39.75 121.1 39.9 121.1 40 121.1 40.15 121.1 40.25 121.1 40.35 121.1 40.5 121.1 40.6 121.1 40.75 121.1 40.85 121.1 40.95 121.05 41.1 121 41.2 121 41.3 121 41.45 121 41.55 121 41.7 121 41.8 121 41.9 121 42.05 121 42.15 121 42.3 121 42.4 121 42.5 121 42.65 121 42.75 121 42.85 121 43 121 43.1 121 43.25 121 43.35 121 43.45 121 43.6 121 43.7 121 43.85 121 43.95 121 44.05 121 44.2 121 44.3 121 44.4 121 44.55 121 44.65 121 44.8 121 44.9 121 45 121 45.15 121 45.25 121 45.4 121 45.5 121 45.6 121 45.75 121 45.85 121 45.95 121 46.1 121 46.2 120.95 46.35 120.95 46.45 120.95 46.55 120.95 46.7 120.95 46.8 120.95 46.95 120.95 47.05 120.95 47.15 120.95 47.3 120.95 47.4 120.95 47.5 120.95 47.65 120.95 47.75 120.95 47.9 120.95 48 120.95 48.1 120.95 48.25 120.95 48.35 120.95 48.5 120.95 48.6 120.95 48.7 120.95 48.85 120.95 48.95 120.95 49.05 120.95 49.2 120.95 49.3 120.95 49.45 120.95 49.55 120.95 49.65 120.95 49.8 120.95 49.9 120.95 50.05 120.95 50.15 120.95 50.25 120.95 50.4 120.95 50.5 120.95 50.6 120.95 50.75 120.95 50.85 120.95 51 120.95 51.1 120.95 51.2 120.95 51.35 120.95 51.45 120.95 51.6 120.95 51.7 120.95 51.8 120.95 51.95 120.95 52.05 120.95 52.15 120.95 52.3 120.95 52.4 120.95 52.55 120.95 52.65 120.95 52.75 120.95 52.9 120.95 53 120.95 53.15 120.95 53.25 120.95 53.35 120.95 53.5 120.95 53.6 120.95 53.7 120.95 53.85 120.95 53.95 120.95 54.1 120.95 54.2 120.95 54.3 120.95 54.45 120.95 54.55 120.95 54.7 120.95 54.8 120.95 54.9 120.95 55.05 120.95 55.15 120.95 55.25 120.95 55.4 120.95 55.5 120.9 55.65 120.85 55.75 120.85 55.85 120.85 56 120.85 56.1 120.85 56.25 120.85 56.35 120.85 56.45 120.85 56.6 120.85 56.7 120.85 56.8 120.85 56.95 120.85 57.05 120.85 57.2 120.85 57.3 120.85 57.4 120.85 57.55 120.85 57.65 120.85 57.8 120.85 57.9 120.85 58 120.85 58.15 120.85 58.25 120.85 58.35 120.85 58.5 120.85 58.6 120.85 58.75 120.85 58.85 120.85 58.95 120.85 59.1 120.85 59.2 120.85 59.35 120.85 59.45 120.85 59.55 120.85 59.7 120.85 59.8 120.85 59.9 120.85 60.05 120.85 60.15 120.85 60.3 120.85 60.4 120.85 60.5 120.85 60.65 120.85 60.75 120.85 60.9 120.85 61 120.85 61.1 120.85 61.25 120.85 61.35 120.85 61.45 120.85 61.6 120.85 61.7 120.85 61.85 120.85 61.95 120.85 62.05 120.85 62.2 120.85 62.3 120.85 62.45 120.85 62.55 120.85 62.65 120.85 62.8 120.85 62.9 120.85 63 120.85 63.15 120.85 63.25 120.85 63.4 120.85 63.5 120.85 63.6 120.85 63.75 120.85 63.85 120.85 64 120.85 64.1 120.85 64.2 120.85 64.35 120.85 64.45 120.85 64.55 120.85 64.7 120.85 64.8 120.85 64.95 120.85 65.05 120.85 65.15 120.85 65.3 120.85 65.4 120.85 65.55 120.85 65.65 120.85 65.75 120.85 65.9 120.85 66 120.85 66.1 120.85 66.25 120.85 66.35 120.85 66.5 120.85 66.6 120.85 66.7 120.85 66.85 120.85 66.95 120.85 67.1 120.85 67.2 120.85 67.3 120.85 67.45 120.85 67.55 120.85 67.65 120.85 67.8 120.85 67.9 120.85 68.05 120.85 68.15 120.85 68.25 120.85 68.4 120.85 68.5 120.85 68.65 120.85 68.75 120.85 68.85 120.85 69 120.85 69.1 120.85 69.2 120.85 69.35 120.85 69.45 120.85 69.6 120.85 69.7 120.85 69.8 120.85 69.85 120.85 69.9 89.25 69.9 57.7 69.9
L 57.7 69.95
Q 56.7 69.95 55.7 69.95 55.45 69.95 55.2 70 54.95 70 54.7 70.05 54.65 70.05 54.55 70.1 54.35 70.15 54.2 70.2 54.05 70.25 53.9 70.35 53.8 70.45 53.7 70.5 53.6 70.6 53.55 70.65 53.45 70.75 53.4 70.8 53.35 70.9 53.3 70.95 53.25 71.05 53.2 71.1 53.1 71.2 53.05 71.25 53.05 71.35 53 71.4 53 71.5 53 71.55 53 71.65 52.95 71.7 52.95 71.8 52.95 71.9 52.95 71.95 52.9 72.05 52.9 72.1 52.9 72.2 52.9 72.25 52.9 72.35 52.95 72.4 52.95 72.5 52.95 72.55 52.95 72.65 53 72.7 53 72.8 53 72.85 53 72.95 53.05 73 53.05 73.1 53.1 73.15 53.2 73.25 53.25 73.35 53.3 73.4 53.35 73.5 53.4 73.55 53.45 73.65 53.55 73.7 53.6 73.8 53.7 73.85 53.8 73.95 53.9 74 54.05 74.1 54.2 74.15 54.35 74.2 54.55 74.25 54.65 74.3 54.7 74.3 54.95 74.35 55.15 74.35 55.2 74.35 55.25 74.35 55.5 74.35 55.7 74.3 55.8 74.3 55.85 74.25 56.8 74.25 57.7 74.25 89.25 74.25 120.85 74.25 120.85 74.3 120.85 74.35 120.85 74.45 120.85 74.6 120.85 74.7 120.85 74.85 120.85 74.95 120.85 75.05 120.85 75.2 120.85 75.3 120.85 75.4 120.85 75.55 120.85 75.65 120.85 75.8 120.85 75.9 120.85 76 120.85 76.15 120.85 76.25 120.85 76.4 120.85 76.5 120.85 76.6 120.85 76.75 120.85 76.85 120.85 76.95 120.85 77.1 120.85 77.2 120.85 77.35 120.85 77.45 120.85 77.55 120.85 77.7 120.85 77.8 120.85 77.95 120.85 78.05 120.85 78.15 120.85 78.3 120.85 78.4 120.85 78.5 120.85 78.65 120.85 78.75 120.85 78.9 120.85 79 120.85 79.1 120.85 79.25 120.85 79.35 120.9 79.5 120.95 79.6 120.95 79.7 120.95 79.85 120.95 79.95 120.95 80.05 120.95 80.2 120.95 80.3 120.95 80.45 120.95 80.55 120.95 80.65 120.95 80.8 120.95 80.9 120.95 81.05 120.95 81.15 120.95 81.25 120.95 81.4 120.95 81.5 120.95 81.6 120.95 81.75 120.95 81.85 120.95 82 120.95 82.1 120.95 82.2 120.95 82.35 120.95 82.45 120.95 82.6 120.95 82.7 120.95 82.8 120.95 82.95 120.95 83.05 120.95 83.15 120.95 83.3 120.95 83.4 120.95 83.55 120.95 83.65 120.95 83.75 120.95 83.9 120.95 84 120.95 84.15 120.95 84.25 120.95 84.35 120.95 84.5 120.95 84.6 120.95 84.7 120.95 84.85 120.95 84.95 120.95 85.1 120.95 85.2 120.95 85.3 120.95 85.45 120.95 85.55 120.95 85.7 120.95 85.8 120.95 85.9 120.95 86.05 120.95 86.15 120.95 86.25 120.95 86.4 120.95 86.5 120.95 86.65 120.95 86.75 120.95 86.85 120.95 87 120.95 87.1 120.95 87.25 120.95 87.35 120.95 87.45 120.95 87.6 120.95 87.7 120.95 87.8 120.95 87.95 120.95 88.05 120.95 88.2 120.95 88.3 120.95 88.4 120.95 88.55 120.95 88.65 120.95 88.8 120.95 88.9 120.95 89 120.95 89.15 120.95 89.25 120.95 89.35 120.95 89.5 120.95 89.6 120.95 89.75 120.95 89.85 120.95 89.95 120.95 90.1 120.95 90.2 120.95 90.35 120.95 90.45 120.95 90.55 120.95 90.7 120.95 90.8 120.95 90.9 120.95 91.05 120.95 91.15 120.95 91.3 120.95 91.4 120.95 91.5 120.95 91.65 120.95 91.75 120.95 91.9 120.95 92 120.95 92.1 120.95 92.25 120.95 92.35 120.95 92.45 120.95 92.6 120.95 92.7 120.95 92.85 120.95 92.95 120.95 93.05 120.95 93.2 120.95 93.3 120.95 93.45 120.95 93.55 120.95 93.65 120.95 93.8 120.95 93.9 120.95 94 120.95 94.15 120.95 94.25 120.95 94.4 120.95 94.5 120.95 94.6 120.95 94.75 120.95 94.85 120.95 95 120.95 95.1 120.95 95.2 120.95 95.35 120.95 95.45 120.95 95.55 120.95 95.7 120.95 95.8 120.95 95.95 120.95 96.05 120.95 96.15 120.95 96.3 120.95 96.4 120.95 96.55 120.95 96.65 120.95 96.75 120.95 96.9 120.95 97 120.95 97.1 120.95 97.25 120.95 97.35 120.95 97.5 120.95 97.6 120.95 97.7 120.95 97.85 120.95 97.95 120.95 98.1 120.95 98.2 120.95 98.3 120.95 98.45 120.95 98.55 120.95 98.65 120.95 98.8 120.95 98.9 120.95 99.05 120.95 99.15 120.95 99.25 120.95 99.4 120.95 99.5 120.95 99.65 120.95 99.75 120.95 99.85 120.95 100 120.95 100.1 120.95 100.2 120.95 100.35 120.95 100.45 120.95 100.6 120.95 100.7 120.95 100.8 120.95 100.95 120.95 101.05 120.95 101.2 120.95 101.3 120.95 101.4 120.95 101.55 120.95 101.65 120.95 101.75 120.95 101.9 120.95 102 120.95 102.15 120.95 102.25 120.95 102.35 120.95 102.5 120.95 102.6 120.95 102.75 120.95 102.85 120.95 102.95 120.95 103.1 120.95 103.2 120.95 103.3 120.95 103.45 120.95 103.55 120.95 103.7 120.95 103.8 120.95 103.9 120.95 104.05 120.95 104.15 120.95 104.3 120.95 104.4 120.95 104.5 120.95 104.65 120.95 104.75 120.95 104.85 120.95 105 120.95 105.1 120.95 105.25 120.95 105.35 120.95 105.45 120.95 105.6 120.95 105.7 120.95 105.85 120.95 105.95 120.95 106.05 120.95 106.2 120.95 106.3 120.95 106.4 120.95 106.55 120.95 106.65 120.95 106.8 120.95 106.9 120.95 107 120.95 107.15 120.95 107.25 120.95 107.4 120.95 107.5 120.95 107.6 120.95 107.75 120.95 107.85 120.95 108 120.95 108.1 120.95 108.2 120.95 108.35 120.95 108.45 120.95 108.55 120.95 108.7 120.95 108.8 120.95 108.95 120.95 109.05 120.95 109.15 120.95 109.3 120.95 109.4 120.95 109.5 120.95 109.65 120.95 109.75 120.95 109.9 120.95 110 120.95 110.1 120.95 110.25 120.95 110.35 120.95 110.5 120.95 110.6 120.95 110.7 120.95 110.85 120.95 110.95 120.95 111.1 120.95 111.2 120.95 111.3 120.95 111.45 120.95 111.55 120.95 111.65 120.95 111.8 120.95 111.9 120.95 112.05 120.95 112.15 120.95 112.25 120.95 112.4 120.95 112.5 120.95 112.6 121 112.75 121 112.85 121 113 121 113.1 121 113.2 121 113.35 121 113.45 121 113.6 121 113.7 121 113.8 121 113.95 121 114.05 121 114.2 121 114.3 121 114.4 121 114.55 121 114.65 121 114.75 121 114.9 121 115 121 115.15 121 115.25 121 115.35 121 115.5 121 115.6 121 115.7 121 115.85 121 115.95 121 116.1 121 116.2 121 116.3 121 116.45 121 116.55 121 116.7 121 116.8 121 116.9 121 117.05 121 117.15 121 117.3 121 117.4 121 117.5 121 117.65 121 117.75 121 117.85 121 118 121 118.1 121 118.25 121 118.35 121 118.45 121 118.6 121 118.7 121 118.8 121 118.95 121 119.05 121 119.2 121 119.3 121 119.4 121 119.55 121 119.65 121 119.8 121 119.9 121 120 121 120.15 121 120.25 121 120.4 121 120.5 121 120.6 121 120.75 121 120.85 121 120.95 121 121.1 121 121.2 121 121.35 121 121.45 121 121.55 121 121.7 121 121.8 121.05 121.95 121.1 122.05 121.1 122.15 121.1 122.3 121.1 122.4 121.1 122.5 121.1 122.65 121.1 122.75 121.1 122.9 121.1 123 121.1 123.1 121.1 123.25 121.15 123.35 121.15 123.5 121.15 123.6 121.15 123.7 121.2 123.85 121.25 123.95 121.3 124.05 121.35 124.2 121.35 124.3 121.4 124.45 121.5 124.55 121.55 124.65 121.7 124.8 121.8 124.9 121.95 125.05 122.05 125.15 122.2 125.25 122.35 125.4 122.6 125.5 122.85 125.6 123.3 125.7 123.7 125.8 124.1 125.7 124.5 125.6 124.75 125.5 125 125.4 125.2 125.25 125.4 125.15 125.5 125.05 125.6 124.9 125.7 124.8 125.8 124.65 125.85 124.55 125.95 124.45 126 124.3 126 124.2 126.1 124.05 126.2 123.95 126.2 123.85 126.25 123.7 126.25 123.6 126.25 123.5 126.25 123.35 126.25 123.25 126.3 123.1 126.35 123 126.35 122.9 126.35 122.75 126.35 122.65 126.35 122.5 126.35 122.4 126.35 122.3 126.35 122.15 126.35 122.05 126.4 121.95 126.4 121.8 126.4 121.7 126.4 121.55 126.4 121.45 126.4 121.35 126.4 121.2 126.4 121.1 126.4 120.95 126.4 120.85 126.4 120.75 126.4 120.6 126.4 120.5 126.4 120.4 126.4 120.25 126.4 120.15 126.4 120 126.4 119.9 126.4 119.8 126.4 119.65 126.4 119.55 126.4 119.4 126.4 119.3 126.4 119.2 126.4 119.05 126.4 118.95 126.4 118.8 126.4 118.7 126.4 118.6 126.4 118.45 126.4 118.35 126.4 118.25 126.4 118.1 126.4 118 126.4 117.85 126.4 117.75 126.4 117.65 126.4 117.5 126.4 117.4 126.4 117.3 126.4 117.15 126.4 117.05 126.4 116.9 126.4 116.8 126.4 116.7 126.4 116.55 126.4 116.45 126.4 116.3 126.4 116.2 126.4 116.1 126.4 115.95 126.4 115.85 126.4 115.7 126.4 115.6 126.4 115.5 126.4 115.35 126.4 115.25 126.4 115.15 126.4 115 126.4 114.9 126.4 114.75 126.4 114.65 126.4 114.55 126.4 114.4 126.4 114.3 126.4 114.2 126.4 114.05 126.4 113.95 126.4 113.8 126.4 113.7 126.4 113.6 126.4 113.45 126.4 113.35 126.4 113.2 126.4 113.1 126.4 113 126.4 112.85 126.4 112.75 126.4 112.6 126.4 112.5 126.45 112.4 126.5 112.25 126.5 112.15 126.5 112.05 126.5 111.9 126.5 111.8 126.5 111.65 126.5 111.55 126.5 111.45 126.5 111.3 126.5 111.2 126.5 111.1 126.5 110.95 126.5 110.85 126.5 110.7 126.5 110.6 126.5 110.5 126.5 110.35 126.5 110.25 126.5 110.1 126.5 110 126.5 109.9 126.5 109.75 126.5 109.65 126.5 109.5 126.5 109.4 126.5 109.3 126.5 109.15 126.5 109.05 126.5 108.95 126.5 108.8 126.5 108.7 126.5 108.55 126.5 108.45 126.5 108.35 126.5 108.2 126.5 108.1 126.5 108 126.5 107.85 126.5 107.75 126.5 107.6 126.5 107.5 126.5 107.4 126.5 107.25 126.5 107.15 126.5 107 126.5 106.9 126.5 106.8 126.5 106.65 126.5 106.55 126.5 106.4 126.5 106.3 126.5 106.2 126.5 106.05 126.5 105.95 126.5 105.85 126.5 105.7 126.5 105.6 126.5 105.45 126.5 105.35 126.5 105.25 126.5 105.1 126.5 105 126.5 104.85 126.5 104.75 126.5 104.65 126.5 104.5 126.5 104.4 126.5 104.3 126.5 104.15 126.5 104.05 126.5 103.9 126.5 103.8 126.5 103.7 126.5 103.55 126.5 103.45 126.5 103.3 126.5 103.2 126.5 103.1 126.5 102.95 126.5 102.85 126.5 102.75 126.5 102.6 126.5 102.5 126.5 102.35 126.5 102.25 126.5 102.15 126.5 102 126.5 101.9 126.5 101.75 126.5 101.65 126.5 101.55 126.5 101.4 126.5 101.3 126.5 101.2 126.5 101.05 126.5 100.95 126.5 100.8 126.5 100.7 126.5 100.6 126.5 100.45 126.5 100.35 126.5 100.2 126.5 100.1 126.5 100 126.5 99.85 126.5 99.75 126.5 99.65 126.5 99.5 126.5 99.4 126.5 99.25 126.5 99.15 126.5 99.05 126.5 98.9 126.5 98.8 126.5 98.65 126.5 98.55 126.5 98.45 126.5 98.3 126.5 98.2 126.5 98.1 126.5 97.95 126.5 97.85 126.5 97.7 126.5 97.6 126.5 97.5 126.5 97.35 126.5 97.25 126.5 97.1 126.5 97 126.5 96.9 126.5 96.75 126.5 96.65 126.5 96.55 126.5 96.4 126.5 96.3 126.5 96.15 126.5 96.05 126.5 95.95 126.5 95.8 126.5 95.7 126.5 95.55 126.5 95.45 126.5 95.35 126.5 95.2 126.5 95.1 126.5 95 126.5 94.85 126.5 94.75 126.5 94.6 126.5 94.5 126.5 94.4 126.5 94.25 126.5 94.15 126.5 94 126.5 93.9 126.5 93.8 126.5 93.65 126.5 93.55 126.5 93.45 126.5 93.3 126.5 93.2 126.5 93.05 126.5 92.95 126.5 92.85 126.5 92.7 126.5 92.6 126.5 92.45 126.5 92.35 126.5 92.25 126.5 92.1 126.5 92 126.5 91.9 126.5 91.75 126.5 91.65 126.5 91.5 126.5 91.4 126.5 91.3 126.5 91.15 126.5 91.05 126.5 90.9 126.5 90.8 126.5 90.7 126.5 90.55 126.5 90.45 126.5 90.35 126.5 90.2 126.5 90.1 126.5 89.95 126.5 89.85 126.5 89.75 126.5 89.6 126.5 89.5 126.5 89.35 126.5 89.25 126.5 89.15 126.5 89 126.5 88.9 126.5 88.8 126.5 88.65 126.5 88.55 126.5 88.4 126.5 88.3 126.5 88.2 126.5 88.05 126.5 87.95 126.5 87.8 126.5 87.7 126.5 87.6 126.5 87.45 126.5 87.35 126.5 87.25 126.5 87.1 126.5 87 126.5 86.85 126.5 86.75 126.5 86.65 126.5 86.5 126.5 86.4 126.5 86.25 126.5 86.15 126.5 86.05 126.5 85.9 126.5 85.8 126.5 85.7 126.5 85.55 126.5 85.45 126.5 85.3 126.5 85.2 126.5 85.1 126.5 84.95 126.5 84.85 126.5 84.7 126.5 84.6 126.5 84.5 126.5 84.35 126.5 84.25 126.5 84.15 126.5 84 126.5 83.9 126.5 83.75 126.5 83.65 126.5 83.55 126.5 83.4 126.5 83.3 126.5 83.15 126.5 83.05 126.5 82.95 126.5 82.8 126.5 82.7 126.5 82.6 126.5 82.45 126.5 82.35 126.5 82.2 126.5 82.1 126.5 82 126.5 81.85 126.5 81.75 126.5 81.6 126.5 81.5 126.5 81.4 126.5 81.25 126.5 81.15 126.5 81.05 126.5 80.9 126.5 80.8 126.5 80.65 126.5 80.55 126.5 80.45 126.5 80.3 126.5 80.2 126.5 80.05 126.5 79.95 126.5 79.85 126.5 79.7 126.5 79.6 126.5 79.5 126.5 79.35 126.55 79.25 126.6 79.1 126.6 79 126.6 78.9 126.6 78.75 126.6 78.65 126.6 78.5 126.6 78.4 126.6 78.3 126.6 78.15 126.6 78.05 126.6 77.95 126.6 77.8 126.6 77.7 126.6 77.55 126.6 77.45 126.6 77.35 126.6 77.2 126.6 77.1 126.6 76.95 126.6 76.85 126.6 76.75 126.6 76.6 126.6 76.5 126.6 76.4 126.6 76.25 126.6 76.15 126.6 76 126.6 75.9 126.6 75.8 126.6 75.65 126.6 75.55 126.6 75.4 126.6 75.3 126.6 75.2 126.6 75.05 126.6 74.95 126.6 74.85 126.6 74.7 126.6 74.6 126.6 74.45 126.6 74.35 126.6 74.3 126.6 74.25 150.35 74.25 174.15 74.25 177.05 74.25 180 74.25 183.7 74.25 187.45 74.25 189.45 74.25 191.5 74.25 195.05 74.25 198.65 74.25 198.9 74.25 199.1 74.2 199.25 74.15 199.4 74.1 199.55 74.05 199.7 73.95 199.85 73.9 199.95 73.8 200.05 73.75 200.15 73.65 200.2 73.6 200.3 73.5 200.35 73.45 200.4 73.35 200.45 73.3 200.5 73.2 200.55 73.1 200.6 73.05 200.6 72.95 200.65 72.9 200.65 72.8 200.7 72.75 200.7 72.65 200.75 72.6 200.75 72.5 200.8 72.45 200.8 72.35 200.8 72.3 200.8 72.2 200.8 72.15 200.8 72.05 200.8 72 200.8 71.9 200.8 71.85 200.8 71.75 200.8 71.65 200.75 71.6 200.75 71.5 200.7 71.45 200.7 71.35 200.65 71.3 200.65 71.2 200.6 71.15 200.55 71.05 200.5 71 200.45 70.9 200.4 70.85 200.35 70.75 200.3 70.7 200.25 70.6 200.15 70.55 200.1 70.45 200 70.4 199.9 70.3 199.75 70.2 199.6 70.15 199.45 70.05 199.25 70 198.95 69.95 198.65 69.9 195.05 69.9 191.5 69.9 Z"/>
</g>

<g id="Layer0_0_FILL">
<path fill="#131313" stroke="none" d="
M 34.9 110.75
Q 30.15 104.3 26 105 24.45 105.25 23.3 106.55 22.25 107.75 21.8 109.4 21.4 110.75 21.4 112.55 21.4 113.65 21.6 115.8 23.2 134.1 23.7 156.35 24.05 171.3 24.1 196.9 24.05 199.4 24.55 200.95 25.15 203.2 26.75 204.15 28.4 205.15 30.55 204.35 32.5 203.6 33.55 201.85 34.4 200.35 34.65 198.2 34.8 196.75 34.75 194.25
L 33.7 127
Q 43.6 141.15 51.85 156.25 55 162 57.25 164.75 60.95 169.1 65.2 170.05 67.65 170.6 70.75 170.1 72.6 169.7 76.15 168.65
L 96.2 162.25
Q 96.4 199.05 94.35 235.5 94.2 238.15 94.45 239.7 94.7 242 95.9 243.5 97.2 245.2 99.4 245.6 100.2 245.7 100.95 245.75 102.25 245.65 103.45 245 105.55 243.75 106.35 240.7 107 238.55 107.05 234.95
L 107.8 175.65
Q 107.95 163.3 108.7 156.8 108.85 154.85 108.9 153.45 108.85 152.45 108.8 151.65 108.45 148.85 106.65 147.5 104.7 145.95 101.8 146.6 99.75 146.95 96.75 148.45 84.25 154.85 70.5 158.6 69.3 158.95 68.6 159.05 67.5 159.1 66.7 158.85 65.55 158.45 64.55 157.25 63.95 156.45 63.15 154.85 57.55 144.1 49.95 132.4 43.5 122.5 34.9 110.75
M 204.55 118.15
Q 204.15 118.1 203.8 118.2 199.8 118.3 194.55 120.1 192.65 120.7 190.1 121.8 189.3 122 188.55 122.3 184.35 123.6 176.45 127.25 166.65 131.55 161.7 134 153.25 137.95 146.7 141.75 145.15 142.6 144.45 143.2 143.2 144.05 142.65 145.1 141.9 146.2 141.8 148.05
L 141.8 148.2
Q 141.05 151.75 140.85 161.95 140.7 167.45 140.75 175.15 140.7 178.55 140.8 182.45
L 141.4 238.4
Q 141.3 241.4 142.1 243.45 143 245.85 145.1 246.1 145.25 246.1 145.5 246.1 146.75 246.1 148.25 245.2 149.7 244 150.5 242.35 151.05 240.9 151.35 239 151.4 237.9 151.4 235.7
L 151.3 199.9
Q 157.1 196.5 164.9 192.6 173.95 188.2 178.4 186 183.3 183.55 187.6 181.4 197.45 176.05 204.05 171.3 209.3 167.35 213.15 163.4 217.75 158.55 220.35 153.15 222.3 148.75 223.3 143.85 223.75 141.15 223.85 138.85 223.9 137.55 223.9 136.5 223.8 133.6 223.2 131 221.75 125 218.05 122.05 215.1 119.65 209.7 118.7 206.8 118.1 204.55 118.15
M 210.65 128.3
Q 213.65 129.9 215.35 132.85 217.05 136.1 217.1 140.8 217 145.6 214.85 150.15 213.15 153.55 210.2 156.75 207.8 159.2 204.45 161.85 194.95 169 177.8 176.95 164.75 182.85 163.4 183.65 156.65 186.85 151.3 190.1
L 151.7 149.3
Q 164.9 140.6 179.1 134.65 191.25 129.4 203.7 126.4 203.9 126.4 204.25 126.5 207.9 126.75 210.65 128.3 Z"/>
</g>

<path id="Layer3_0_1_STROKES" stroke="#131313" stroke-width="12" stroke-linejoin="round" stroke-linecap="round" fill="none" d="
M 99.1 126.15
L 123.85 140.45 148.6 126.15
M 123.85 140.45
L 123.85 169"/>

<path id="Layer1_0_1_STROKES" stroke="#131313" stroke-width="12" stroke-linejoin="round" stroke-linecap="round" fill="none" d="
M 184 105.4
L 74 41.1"/>

<path id="Layer1_0_2_STROKES" stroke="#131313" stroke-width="12" stroke-linejoin="bevel" stroke-linecap="round" fill="none" d="
M 184 105.4
L 184 110.4"/>
</defs>

<g transform="matrix( 1, 0, 0, 1, 956,69.6) ">
<g transform="matrix( 1, 0, 0, 1, 0,0) ">
<use xlink:href="#Layer5_0_FILL"/>
</g>

<g transform="matrix( 1, 0, 0, 1, 0,0) ">
<use xlink:href="#Layer4_0_FILL"/>
</g>

<g transform="matrix( 1, 0, 0, 1, 0,0) ">
<use xlink:href="#Layer3_0_FILL"/>

<use xlink:href="#Layer3_0_1_STROKES"/>
</g>

<g transform="matrix( 1, 0, 0, 1, 0,0) ">
<use xlink:href="#Layer2_0_FILL"/>
</g>

<g transform="matrix( 1, 0, 0, 1, 0,0) ">
<use xlink:href="#Layer1_0_1_STROKES"/>

<use xlink:href="#Layer1_0_2_STROKES"/>
</g>

<g transform="matrix( 1, 0, 0, 1, 0,0) ">
<use xlink:href="#Layer0_0_FILL"/>
</g>
</g>
</svg>
