<?xml version="1.0" encoding="iso-8859-1"?>
<!-- Generator: Adobe Illustrator 25.0.0, SVG Export Plug-In . SVG Version: 6.00 Build 0)  -->
<svg version="1.1" baseProfile="basic" id="Layer_1"
	 xmlns="http://www.w3.org/2000/svg" xmlns:xlink="http://www.w3.org/1999/xlink" x="0px" y="0px" viewBox="0 0 72 72"
	 xml:space="preserve">
<path fill="#FFFFFF" d="M31,11c11.027,0,20,8.973,20,20c0,11.027-8.973,20-20,20c-11.027,0-20-8.973-20-20C11,19.973,19.973,11,31,11z M31,43
	c6.616,0,12-5.384,12-12c0-6.616-5.384-12-12-12c-6.616,0-12,5.384-12,12C19,37.616,24.384,43,31,43z"/>
<path fill="#FFFFFF" d="M60.752,54.727c1.664,1.664,1.664,4.361,0,6.025c-1.663,1.664-4.361,1.664-6.025,0C53.895,59.92,39.5,45.525,39.5,45.525
	l6.025-6.025C45.525,39.5,59.92,53.895,60.752,54.727z"/>
</svg>