
<svg xmlns="http://www.w3.org/2000/svg" version="1.1" xmlns:xlink="http://www.w3.org/1999/xlink" preserveAspectRatio="none" x="0px" y="0px" width="461px" height="526px" viewBox="0 0 461 526">
<defs>
<linearGradient id="Gradient_1" gradientUnits="userSpaceOnUse" x1="0" y1="272.3" x2="793" y2="272.3" spreadMethod="reflect">
<stop  offset="0%" stop-color="#7A09FA"/>

<stop  offset="100%" stop-color="#FDD2ED"/>
</linearGradient>

<g id="Layer6_0_FILL">
<path fill="#131313" stroke="none" d="
M 485.05 175.8
Q 486.5044921875 148.1640625 455 125 412.902734375 93.974609375 390.25 80.95 340.4 52.3 300.65 23.6 287.8 14.3 281.25 10.85 269.85 4.8 259.65 4.55 250.25 4.3 239.35 9.05 232.45 12 220.65 19.35
L 117.25 83.45
Q 101.35 93.35 92.65 98.45 78.85 106.55 67.3 112.2 50.9 120.2 45.4 123.9 33.8 131.6 29.45 141.4 27.9 144.85 27.1 149.05
L 27.1 148.85
Q 26.25 168.75 26.3 189.9 26.25 199.05 27.1 241.65
L 27.1 270.75 27.15 270.75 27.5 289
Q 27.4 293 27.3 298.1
L 25.25 390.25
Q 25.1 393.4 25.1 396 25.1 397.3 25.15 398.5 25.25 401 25.55 402.75 26.2 409 28.85 411.75 29.35 412.45 30.3 413.05 34.1 417.1 39.25 420.85 45.5 425.35 58.9 432.45 145.8595703125 478.3419921875 192.3 503.85 234.637109375 527.087109375 250.05 530.1 277.5974609375 528.121875 368.6 476.5 459.6505859375 424.92890625 470.15 413.3 480.70390625 401.7154296875 480 400 484.341796875 353.959765625 483.65 321.05 482.2623046875 255.14296875 482.9 229.3 483.589453125 203.4998046875 485.05 175.8
M 455.7 160.45
L 453.85 392.5 251.95 506.85 51.95 389.2 53.85 157.2 255.7 42.8 455.7 160.45 Z"/>
</g>

<g id="Mask_5_MASK_0_FILL">
<path fill="#FFFFFF" stroke="none" d="
M 453.85 392.5
L 455.7 160.45 255.7 42.8 53.85 157.2 51.95 389.2 251.95 506.85 453.85 392.5 Z"/>
</g>

<g id="Layer5_0_FILL">
<path fill="url(#Gradient_1)" stroke="none" d="
M 60.95 37.7
L 47.15 143.15 47.15 508.9 69.45 511.85 458.5 511.85 458.5 37.7 60.95 37.7 Z"/>
</g>

<g id="Layer3_0_FILL">
<path fill="#131313" stroke="none" d="
M 119.45 253.5
Q 107.95 236.2 92.5 215.75 84.1 204.55 76.75 206.4 74 207.1 71.95 209.55 70.05 211.8 69.25 214.8 68.55 217.35 68.55 220.65 68.55 222.65 68.9 226.55 71.7 259.5 72.65 300 73.3 327.15 73.3 373.6 73.3 378.15 74.05 380.95 75.15 384.85 77.95 386.45 80.95 388.15 84.65 386.6 88.2 385.15 90 381.85 91.6 379.05 92.05 375.1 92.35 372.5 92.25 367.85
L 90.3 245.55
Q 108 270.3 122.8 297.05 128.45 307.35 132.6 312.15 139.15 319.75 146.9 321.1 151.35 321.9 156.95 320.65 160.3 319.85 166.75 317.5
L 203.55 303.7
Q 203.8 372 200.05 439.4 199.75 444.4 200.1 447.2 200.65 451.45 202.8 454.15 205.2 457.15 209.3 457.85 213.45 458.55 216.7 456.5 220.65 454 222.2 448.3 223.3 444.3 223.4 437.65
L 225 327.5
Q 225.3 304.5 226.65 292.3 227.35 286.25 226.9 282.85 226.2 277.65 222.9 275.25 219.35 272.65 213.9 274 210.15 274.95 204.6 278.1 181.65 291.25 156.5 299.55 154.35 300.25 153.05 300.5 151.1 300.8 149.6 300.35 147.5 299.75 145.75 297.6 144.65 296.2 143.15 293.35 133.1 274.1 119.45 253.5
M 432.8 225.45
Q 426.45 220.85 414.4 219.45 407.3 218.5 401.65 219.05 393 219.75 381.75 224 377.7654296875 225.494140625 372.3 227.9 370.7505859375 228.4525390625 369.15 229.05 360.4 232.35 344.2 240.1 324.95 249.3 315.15 254.3 299.1 262.45 286.8 269.9 284.1 271.55 282.7 272.65 280.55 274.35 279.45 276.25 278.2 278.5 277.85 281.7 277.833203125 281.8689453125 277.8 282.05 275.5974609375 294.1041015625 275.95 345
L 276.65 445
Q 276.6 450.3 277.8 453.8 279.45 458.4 283.2 459.2 285.9 459.85 288.75 458.15 291.4 456.5 292.8 453.65 293.95 451.25 294.35 447.95 294.6 446 294.6 442
L 294.75 377.45
Q 305.6216796875 371.7806640625 320.15 365.35 337.8 357.7 346.6 353.85 356.35 349.55 364.9 345.45 385.35 335.65 399.3 326.55 411.05 318.95 419.35 310.95 429.7 301.1 435.75 290 440.65 281 443.1 270.55 445.05 262.5 445.05 255.2 445.05 249.2 443.75 243.7 440.95 231.35 432.8 225.45
M 429.45 264.55
Q 429.05 274.6 423.95 283.85 420.1 290.9 413.45 297.35 408.25 302.4 400.75 307.7 380.55 321.8 345.5 336.6 320.3 347.3 317.65 348.45 304.9716796875 354.0892578125 294.8 359.6
L 296 284
Q 321.321875 266.97109375 349.35 254.45 374.4798828125 243.18046875 400.85 235.95 401.4728515625 235.961328125 402.1 236 410.05 236.4 415.9 239.2 422.5 242.4 426 248.4 429.85 254.95 429.45 264.55
M 400.75 153.7
Q 385.5 155.9 371.1 159.7 299.85 193.8 259.3 218.9 256.45 220.55 254.95 221.35 254.25 221.55 252.65 221.2 252.05 221.1 246.3 218.8
L 246.2 218.75
Q 246 218.7 245.85 218.65
L 234.6 212.9
Q 234.5 212.85 234.4 212.8
L 195.75 192.85
Q 212.2 183.65 235.05 168.2 270.85 143.9 279.35 138.65 281.9 137.1 283.1 136.15 285 134.6 285.95 132.85 287.45 130.05 286.55 126.7 285.65 123.4 282.95 121.75 280.95 120.55 278.3 120.45 275.85 120.35 273.4 121.2 271.35 121.9 269 123.35 267.9 124.05 264.9 126.15 226.85 153.5 185.2 178.5 185 178.6 184.85 178.7 183.25 179.45 182.45 179.9 180.7 180.75 179.7 181.45 178.35 182.35 177.5 183.4
L 125.5 156.55 140.1 147.7
Q 171 129 194.9 114.45 200.1 111.55 205.9 108.4 209 106.6 210.65 105.15 211 104.8 211.3 104.45 233.15 91.05 247.7 82 251.4 79.7 253.2 78.05 255.95 75.55 256.9 72.75 258.1 69.3 256.3 65.75 254.45 62.15 250.95 61.45 248.4 60.9 245.35 62.1 243.4 62.85 240.15 64.85
L 114 144.25
Q 108.9 147.5 107.05 149.7 107.05 149.75 107 149.75 104.45 150.55 103.4 153.35 102.85 154.8 103 156.25 103.15 157.65 104.05 159.1 105.1 160.65 107.1 162.05 108.3 162.8 110.95 164.15 120.1 168.75 131.15 175.05 138.3 179.1 151 186.65 181.05 204.7 192.45 211.1 216.05 224.5 235.6 233.45 235.75 233.55 236 233.65 237.25 234.35 238.9 235.15 244.7 237.75 247.7 238.65 250.1 239.35 252.55 239.65
L 252.55 239.6
Q 254.15 239.75 255.9 239.85 257.9 239.75 260.25 239.55 266.35 238.7 271.6 235.75 273.6 234.55 276 232.8 276.2 232.55 278.75 230.65
L 333 203.65
Q 350.3 194.4 364.85 187.05 391.9 173.05 422.35 157.75 422 157.35 421.95 156.95 419.2 153.4 411.95 152.85 411.15 152.75 410.35 152.7 409.05 152.65 407.6 152.8 404.55 153 400.75 153.7 Z"/>
</g>

<g id="Layer2_0_STROKES_1_FILL">
<path fill="#0E071B" stroke="none" d="
M 315.3 228.95
Q 315.3 228.8 315.2 228.9
L 253.55 255.75 191.9 228.9
Q 191.8 228.8 191.8 228.95 191.7 229.05 191.85 229.05
L 251 261.1 253.85 317.9 253.95 317.95 254.05 317.9 256.85 260.65 315.25 229.05
Q 315.4 229.05 315.3 228.95 Z"/>
</g>

<g id="Layer1_0_FILL">
<path fill="#131313" stroke="none" d="
M 384.15 163.5
Q 381.15 163.05 376.05 163.6 365 164.5 354.5 166.6 298.45 192.5 259.7 216.35 256.75 218.15 255.1 218.9 252.4 219.95 249.9 219.75 249.45 219.75 248.95 219.65 248.8 219.8 248.6 220 248.3 219.9 248.15 219.85 247 219.2 245.4 218.45
L 192 190.95
Q 193.65 189.9 196.05 188.75
L 211.3 181.25
Q 213.7 180.05 214.85 179.45 216.7 178.25 217.9 177.15 219.35 175.7 220 173.95 220.75 172.05 220.3 170.15 219.6 167.25 216.9 165.6 214.1 163.9 211.2 164.6 209.65 164.85 207.95 165.8 207.45 166.05 205.15 167.55 202.95 168.95 199 170.9 194.35 173.2 192.85 174.05 191.8 174.6 189.1 176.3 186.75 177.7 185.35 178.5 183.35 179.4 182.45 179.9 180.7 180.75 179.7 181.45 178.35 182.35 177.5 183.4
L 123.9 155.7
Q 139 145.75 160.85 133.4 175.55 125.15 205.9 108.4 209 106.6 210.65 105.15 212.9 102.95 213.25 100.55 213.6 97.95 211.75 95.6 209.85 93.15 207.05 92.75 206.2 92.55 205.35 92.65 204 92.7 202.65 93.2 201.05 93.65 198.6 95.05 158.15 116.55 119.7 140.9 113.1 145.05 109.6 147.75 108.35 148.65 107.55 149.65 107.5 149.65 107.45 149.65 104.5 150.3 103.4 153.35 102.85 154.8 103 156.25 103.15 157.65 104.05 159.1 105.1 160.65 107.1 162.05 108.3 162.8 110.95 164.15 120.1 168.75 131.15 175.05 138.3 179.1 151 186.65 181.05 204.7 192.45 211.1 216.05 224.5 235.6 233.45 235.75 233.55 236 233.65 237.25 234.35 238.9 235.15 244.7 237.75 247.7 238.65 251.9 239.85 256.35 239.85 258.65 239.85 261.05 239.55 267.8 238.55 273.25 235.15 275.3 233.85 277.75 231.85 277.95 231.6 280.5 229.5
L 329.95 202.95
Q 343.65 195 354.55 188.95 373.5 178.3 392.85 167.75 392.55 167.45 392.4 167.2 389.6 164.3 384.15 163.5 Z"/>
</g>

<path id="Layer0_0_1_STROKES" stroke="#FFFFFF" stroke-opacity="0" stroke-width="1" stroke-linejoin="round" stroke-linecap="round" fill="none" d="
M 251.95 506.85
L 253.95 259.3 53.85 157.2
M 255.7 42.8
L 253.95 259.3 455.7 160.45"/>
</defs>

<g transform="matrix( 1, 0, 0, 1, -25.1,-4.1) ">
<g transform="matrix( 1, 0, 0, 1, 0,0) ">
<use xlink:href="#Layer6_0_FILL"/>
</g>

<mask id="Mask_Mask_1">
<g transform="matrix( 1, 0, 0, 1, 0,0) ">
<use xlink:href="#Mask_5_MASK_0_FILL"/>
</g>
</mask>

<g mask="url(#Mask_Mask_1)">
<g transform="matrix( 1, 0, 0, 1, 0,0) ">
<use xlink:href="#Layer5_0_FILL"/>
</g>
</g>

<g transform="matrix( 1, 0, 0, 1, 0,0) ">
<use xlink:href="#Layer3_0_FILL"/>
</g>

<g transform="matrix( 1, 0, 0, 1, 0,0) ">
<use xlink:href="#Layer2_0_STROKES_1_FILL"/>
</g>

<g transform="matrix( 1, 0, 0, 1, 0,0) ">
<use xlink:href="#Layer1_0_FILL"/>
</g>

<g transform="matrix( 1, 0, 0, 1, 0,0) ">
<use xlink:href="#Layer0_0_1_STROKES"/>
</g>
</g>
</svg>
