
<svg xmlns="http://www.w3.org/2000/svg" version="1.1" xmlns:xlink="http://www.w3.org/1999/xlink" preserveAspectRatio="none" x="0px" y="0px" width="285px" height="285px" viewBox="0 0 285 285">
<defs>
<linearGradient id="Gradient_1" gradientUnits="userSpaceOnUse" x1="0" y1="142.5" x2="249" y2="142.5" spreadMethod="reflect">
<stop  offset="0%" stop-color="#7A09FA"/>

<stop  offset="100%" stop-color="#FDD2ED"/>
</linearGradient>

<linearGradient id="Gradient_2" gradientUnits="userSpaceOnUse" x1="124.5" y1="-6.025000000000006" x2="124.5" y2="291.025" spreadMethod="reflect">
<stop  offset="0%" stop-color="#7A09FA"/>

<stop  offset="100%" stop-color="#FDD2ED"/>
</linearGradient>

<g id="Layer0_0_FILL">
<path fill="url(#Gradient_1)" stroke="none" d="
M 249 73.15
L 247.4 71.25 126.2 0.4 124 0 121.65 0.4 0.55 71.25 0 71.75 0.55 213.8 1.8 215.4 121.3 285.05 126.7 285.05 245.9 216.95 247.4 213.8 249 73.15
M 218.75 83.75
Q 217.8 84.65 217.05 85.15 215.95 85.8 215.4 86.2 214.5 86.8 214.1 87.5 213.45 88.75 214.1 89.95 214.85 91.15 216.2 91.25 217 91.35 218.8 90.5 223.3 88.3 227.85 86.35 232.5 84.4 233.9 83.75 234.3 83.55 234.7 83.35
L 234.7 204.45 131.9 263.85
Q 131.9 263.65 131.9 263.55 131.9 263.35 131.9 263.2 131.9 263 131.9 262.8 131.9 262.65 131.9 262.45 131.9 262.25 131.9 262.1 131.9 261.9 131.9 261.7 131.9 261.55 131.9 261.35 131.9 261.15 131.9 261 131.9 260.8 131.9 260.6 131.9 260.45 131.9 260.25 131.9 260.05 131.9 259.9 131.9 259.7 131.9 259.55 131.9 259.35 131.9 259.15 131.9 259 131.9 258.8 131.9 258.6 131.9 258.45 131.9 258.25 131.9 258.05 131.85 257.9 131.8 257.7 131.8 257.5 131.8 257.35 131.8 257.15 131.8 256.95 131.8 256.8 131.8 256.6 131.8 256.45 131.8 256.25 131.7 256.05 131.65 255.9 131.65 255.7 131.65 255.5 131.65 255.35 131.65 255.15 131.65 254.95 131.65 254.8 131.6 254.6 131.55 254.4 131.55 254.25 131.55 254.05 131.55 253.85 131.55 253.7 131.5 253.5 131.4 253.35 131.4 253.15 131.4 252.95 131.4 252.8 131.4 252.6 131.35 252.4 131.3 252.25 131.3 252.05 131.3 251.85 131.25 251.7 131.15 251.5 131.15 251.3 131.15 251.15 131.15 250.95 131.15 250.75 131.1 250.6 131.05 250.4 131.05 250.25 131.05 250.05 131 249.85 130.95 249.7 130.95 249.5 130.95 249.3 130.85 249.15 130.8 248.95 130.8 248.75 130.8 248.6 130.75 248.4 130.7 248.2 130.6 248.05 130.55 247.85 130.55 247.65 130.55 247.5 130.5 247.3 130.45 247.1 130.45 246.95 130.45 246.75 130.4 246.6 130.3 246.4 130.25 246.2 130.2 246.05 130.2 245.85 130.2 245.65 130.2 245.5 130.2 245.3 130.15 245.1 130.1 244.95 130 244.75 129.95 244.55 129.95 244.4 129.95 244.2 129.9 244 129.85 243.85 129.85 243.65 129.85 243.5 129.75 243.3 129.7 243.1 129.7 242.95 129.7 242.75 129.65 242.55 129.6 242.4 129.55 242.2 129.45 242 129.45 241.85 129.45 241.65 129.4 241.45 129.35 241.3 129.3 241.1 129.25 240.9 129.25 240.75 129.25 240.55 129.15 240.4 129.1 240.2 129.1 240 129.1 239.85 129.05 239.65 129 239.45 128.9 239.3 128.85 239.1 128.85 238.9 128.85 238.75 128.8 238.55 128.75 238.35 128.75 238.2 128.75 238 128.7 237.8 128.6 237.65 128.55 237.45 128.5 237.3 128.5 237.1 128.5 236.9 128.45 236.75 128.35 236.55 128.35 236.35 128.35 236.2 128.3 236 128.25 235.8 128.25 235.65 128.25 235.45 128.2 235.25 128.15 235.1 128.15 234.9 128.15 234.7 128.05 234.55 128 234.35 128 234.15 128 234 127.95 233.8 127.9 233.65 127.9 233.45 127.9 233.25 127.85 233.1 127.75 232.9 127.75 232.7 127.75 232.55 127.7 232.35 127.65 232.15 127.6 232 127.5 231.8 127.45 231.6 127.4 231.45 127.35 231.25 127.3 231.05 127.3 230.9 127.3 230.7 127.2 230.55 127.15 230.35 127.15 230.15 127.15 230 127.1 229.8 127.05 229.6 127.05 229.45 127.05 229.25 127 229.05 126.9 228.9 126.9 228.7 126.9 228.5 126.85 228.35 126.8 228.15 126.65 227.95 126.55 227.8 126.45 227.6 126.3 227.45 126.1 227.25 125.95 227.05 125.65 226.9 125.35 226.7 124.85 226.55 124.35 226.45 124.35 226.5 124.35 226.55 124 226.55 123.65 226.55 123.45 226.65 123.25 226.7 123.1 226.8 122.9 226.95 122.65 227.1 122.4 227.3 122.3 227.5 122.15 227.65 122.05 227.85 121.95 228.05 121.85 228.2 121.8 228.4 121.8 228.6 121.8 228.75 121.75 228.95 121.7 229.15 121.7 229.3 121.7 229.5 121.65 229.7 121.55 229.85 121.55 230.05 121.55 230.2 121.5 230.4 121.45 230.6 121.4 230.75 121.3 230.95 121.3 231.15 121.3 231.3 121.2 231.5 121.1 231.7 121 231.85 120.95 232.05 120.95 232.25 120.95 232.4 120.95 232.6 120.95 232.8 120.9 232.95 120.85 233.15 120.85 233.3 120.85 233.5 120.75 233.7 120.7 233.85 120.7 234.05 120.7 234.25 120.65 234.4 120.6 234.6 120.6 234.8 120.6 234.95 120.55 235.15 120.45 235.35 120.45 235.5 120.45 235.7 120.4 235.9 120.35 236.05 120.35 236.25 120.35 236.4 120.3 236.6 120.25 236.8 120.15 236.95 120.1 237.15 120.1 237.35 120.1 237.5 120.05 237.7 120 237.9 120 238.05 120 238.25 119.9 238.45 119.85 238.6 119.8 238.8 119.75 239 119.75 239.15 119.75 239.35 119.7 239.5 119.6 239.7 119.55 239.9 119.5 240.05 119.5 240.25 119.5 240.45 119.45 240.6 119.4 240.8 119.4 241 119.4 241.15 119.3 241.35 119.25 241.55 119.25 241.7 119.25 241.9 119.2 242.1 119.15 242.25 119.05 242.45 119 242.65 119 242.8 119 243 118.95 243.15 118.9 243.35 118.85 243.55 118.75 243.7 118.75 243.9 118.75 244.1 118.7 244.25 118.65 244.45 118.65 244.65 118.65 244.8 118.6 245 118.55 245.2 118.55 245.35 118.55 245.55 118.45 245.75 118.4 245.9 118.4 246.1 118.4 246.25 118.35 246.45 118.3 246.65 118.3 246.8 118.3 247 118.2 247.2 118.15 247.35 118.1 247.55 118.05 247.75 118.05 247.9 118.05 248.1 118 248.3 117.9 248.45 117.9 248.65 117.9 248.85 117.85 249 117.8 249.2 117.75 249.35 117.65 249.55 117.65 249.75 117.65 249.9 117.65 250.1 117.65 250.3 117.6 250.45 117.55 250.65 117.55 250.85 117.55 251 117.5 251.2 117.45 251.4 117.45 251.55 117.45 251.75 117.45 251.95 117.45 252.1 117.35 252.3 117.3 252.45 117.3 252.65 117.3 252.85 117.3 253 117.3 253.2 117.25 253.4 117.2 253.55 117.2 253.75 117.2 253.95 117.2 254.1 117.2 254.3 117.15 254.5 117.05 254.65 117.05 254.85 117.05 255.05 117.05 255.2 117.05 255.4 117.05 255.6 117.05 255.75 117 255.95 116.95 256.1 116.95 256.3 116.95 256.5 116.95 256.65 116.95 256.85 116.95 257.05 116.95 257.2 116.95 257.4 116.95 257.6 116.9 257.75 116.8 257.95 116.8 258.15 116.8 258.3 116.8 258.5 116.8 258.7 116.8 258.85 116.8 259.05 116.8 259.2 116.8 259.4 116.8 259.6 116.8 259.75 116.8 259.95 116.8 260.15 116.8 260.3 116.8 260.5 116.8 260.7 116.8 260.85 116.8 261.05 116.8 261.25 116.8 261.4 116.8 261.6 116.8 261.8 116.8 261.95 116.8 262.15 116.8 262.3 116.8 262.5 116.8 262.7 116.8 262.85 116.8 263.05 116.8 263.25 116.8 263.4 116.8 263.6 116.8 263.8 116.8 263.95 116.8 264.15 116.8 264.3 116.8 264.45
L 12.85 204.45 12.85 81.4
Q 22.6 86.1 32.75 89.7 35.65 90.8 38 91.2 39.65 91.5 40.7 91.1 42.25 90.55 42.35 89.15 42.4 88.35 41.6 87.05 40.8 85.7 40.05 84.95 39.35 84.2 37.4 82.9 33.9 80.6 31.8 79.6 31.15 79.3 26.85 77.6 23.85 76.45 18.05 73.55 18 73.5 17.9 73.5
L 123.8 12.35 229.85 73.6
Q 229.2 74.1 228.5 74.75 227 76.4 226.2 77.15 225.3 78.05 223.3 79.7 221.3 81.3 220.35 82.2 219.3 83.25 218.75 83.75 Z"/>

<path fill="#131313" stroke="none" d="
M 217.05 85.15
Q 217.8 84.65 218.75 83.75 219.3 83.25 220.35 82.2 221.3 81.3 223.3 79.7 225.3 78.05 226.2 77.15 227 76.4 228.5 74.75 229.2 74.1 229.85 73.6
L 123.8 12.35 17.9 73.5
Q 18 73.5 18.05 73.55 23.85 76.45 26.85 77.6 31.15 79.3 31.8 79.6 33.9 80.6 37.4 82.9 39.35 84.2 40.05 84.95 40.8 85.7 41.6 87.05 42.4 88.35 42.35 89.15 42.25 90.55 40.7 91.1 39.65 91.5 38 91.2 35.65 90.8 32.75 89.7 22.6 86.1 12.85 81.4
L 12.85 204.45 116.8 264.45
Q 116.8 264.3 116.8 264.15 116.8 263.95 116.8 263.8 116.8 263.6 116.8 263.4 116.8 263.25 116.8 263.05 116.8 262.85 116.8 262.7 116.8 262.5 116.8 262.3 116.8 262.15 116.8 261.95 116.8 261.8 116.8 261.6 116.8 261.4 116.8 261.25 116.8 261.05 116.8 260.85 116.8 260.7 116.8 260.5 116.8 260.3 116.8 260.15 116.8 259.95 116.8 259.75 116.8 259.6 116.8 259.4 116.8 259.2 116.8 259.05 116.8 258.85 116.8 258.7 116.8 258.5 116.8 258.3 116.8 258.15 116.8 257.95 116.9 257.75 116.95 257.6 116.95 257.4 116.95 257.2 116.95 257.05 116.95 256.85 116.95 256.65 116.95 256.5 116.95 256.3 116.95 256.1 117 255.95 117.05 255.75 117.05 255.6 117.05 255.4 117.05 255.2 117.05 255.05 117.05 254.85 117.05 254.65 117.15 254.5 117.2 254.3 117.2 254.1 117.2 253.95 117.2 253.75 117.2 253.55 117.25 253.4 117.3 253.2 117.3 253 117.3 252.85 117.3 252.65 117.3 252.45 117.35 252.3 117.45 252.1 117.45 251.95 117.45 251.75 117.45 251.55 117.45 251.4 117.5 251.2 117.55 251 117.55 250.85 117.55 250.65 117.6 250.45 117.65 250.3 117.65 250.1 117.65 249.9 117.65 249.75 117.65 249.55 117.75 249.35 117.8 249.2 117.85 249 117.9 248.85 117.9 248.65 117.9 248.45 118 248.3 118.05 248.1 118.05 247.9 118.05 247.75 118.1 247.55 118.15 247.35 118.2 247.2 118.3 247 118.3 246.8 118.3 246.65 118.35 246.45 118.4 246.25 118.4 246.1 118.4 245.9 118.45 245.75 118.55 245.55 118.55 245.35 118.55 245.2 118.6 245 118.65 244.8 118.65 244.65 118.65 244.45 118.7 244.25 118.75 244.1 118.75 243.9 118.75 243.7 118.85 243.55 118.9 243.35 118.95 243.15 119 243 119 242.8 119 242.65 119.05 242.45 119.15 242.25 119.2 242.1 119.25 241.9 119.25 241.7 119.25 241.55 119.3 241.35 119.4 241.15 119.4 241 119.4 240.8 119.45 240.6 119.5 240.45 119.5 240.25 119.5 240.05 119.55 239.9 119.6 239.7 119.7 239.5 119.75 239.35 119.75 239.15 119.75 239 119.8 238.8 119.85 238.6 119.9 238.45 120 238.25 120 238.05 120 237.9 120.05 237.7 120.1 237.5 120.1 237.35 120.1 237.15 120.15 236.95 120.25 236.8 120.3 236.6 120.35 236.4 120.35 236.25 120.35 236.05 120.4 235.9 120.45 235.7 120.45 235.5 120.45 235.35 120.55 235.15 120.6 234.95 120.6 234.8 120.6 234.6 120.65 234.4 120.7 234.25 120.7 234.05 120.7 233.85 120.75 233.7 120.85 233.5 120.85 233.3 120.85 233.15 120.9 232.95 120.95 232.8 120.95 232.6 120.95 232.4 120.95 232.25 120.95 232.05 121 231.85 121.1 231.7 121.2 231.5 121.3 231.3 121.3 231.15 121.3 230.95 121.4 230.75 121.45 230.6 121.5 230.4 121.55 230.2 121.55 230.05 121.55 229.85 121.65 229.7 121.7 229.5 121.7 229.3 121.7 229.15 121.75 228.95 121.8 228.75 121.8 228.6 121.8 228.4 121.85 228.2 121.95 228.05 122.05 227.85 122.15 227.65 122.3 227.5 122.4 227.3 122.65 227.1 122.9 226.95 123.1 226.8 123.25 226.7 123.45 226.65 123.65 226.55 124 226.55 124.35 226.55 124.35 226.5 124.35 226.45 124.85 226.55 125.35 226.7 125.65 226.9 125.95 227.05 126.1 227.25 126.3 227.45 126.45 227.6 126.55 227.8 126.65 227.95 126.8 228.15 126.85 228.35 126.9 228.5 126.9 228.7 126.9 228.9 127 229.05 127.05 229.25 127.05 229.45 127.05 229.6 127.1 229.8 127.15 230 127.15 230.15 127.15 230.35 127.2 230.55 127.3 230.7 127.3 230.9 127.3 231.05 127.35 231.25 127.4 231.45 127.45 231.6 127.5 231.8 127.6 232 127.65 232.15 127.7 232.35 127.75 232.55 127.75 232.7 127.75 232.9 127.85 233.1 127.9 233.25 127.9 233.45 127.9 233.65 127.95 233.8 128 234 128 234.15 128 234.35 128.05 234.55 128.15 234.7 128.15 234.9 128.15 235.1 128.2 235.25 128.25 235.45 128.25 235.65 128.25 235.8 128.3 236 128.35 236.2 128.35 236.35 128.35 236.55 128.45 236.75 128.5 236.9 128.5 237.1 128.5 237.3 128.55 237.45 128.6 237.65 128.7 237.8 128.75 238 128.75 238.2 128.75 238.35 128.8 238.55 128.85 238.75 128.85 238.9 128.85 239.1 128.9 239.3 129 239.45 129.05 239.65 129.1 239.85 129.1 240 129.1 240.2 129.15 240.4 129.25 240.55 129.25 240.75 129.25 240.9 129.3 241.1 129.35 241.3 129.4 241.45 129.45 241.65 129.45 241.85 129.45 242 129.55 242.2 129.6 242.4 129.65 242.55 129.7 242.75 129.7 242.95 129.7 243.1 129.75 243.3 129.85 243.5 129.85 243.65 129.85 243.85 129.9 244 129.95 244.2 129.95 244.4 129.95 244.55 130 244.75 130.1 244.95 130.15 245.1 130.2 245.3 130.2 245.5 130.2 245.65 130.2 245.85 130.2 246.05 130.25 246.2 130.3 246.4 130.4 246.6 130.45 246.75 130.45 246.95 130.45 247.1 130.5 247.3 130.55 247.5 130.55 247.65 130.55 247.85 130.6 248.05 130.7 248.2 130.75 248.4 130.8 248.6 130.8 248.75 130.8 248.95 130.85 249.15 130.95 249.3 130.95 249.5 130.95 249.7 131 249.85 131.05 250.05 131.05 250.25 131.05 250.4 131.1 250.6 131.15 250.75 131.15 250.95 131.15 251.15 131.15 251.3 131.15 251.5 131.25 251.7 131.3 251.85 131.3 252.05 131.3 252.25 131.35 252.4 131.4 252.6 131.4 252.8 131.4 252.95 131.4 253.15 131.4 253.35 131.5 253.5 131.55 253.7 131.55 253.85 131.55 254.05 131.55 254.25 131.55 254.4 131.6 254.6 131.65 254.8 131.65 254.95 131.65 255.15 131.65 255.35 131.65 255.5 131.65 255.7 131.65 255.9 131.7 256.05 131.8 256.25 131.8 256.45 131.8 256.6 131.8 256.8 131.8 256.95 131.8 257.15 131.8 257.35 131.8 257.5 131.8 257.7 131.85 257.9 131.9 258.05 131.9 258.25 131.9 258.45 131.9 258.6 131.9 258.8 131.9 259 131.9 259.15 131.9 259.35 131.9 259.55 131.9 259.7 131.9 259.9 131.9 260.05 131.9 260.25 131.9 260.45 131.9 260.6 131.9 260.8 131.9 261 131.9 261.15 131.9 261.35 131.9 261.55 131.9 261.7 131.9 261.9 131.9 262.1 131.9 262.25 131.9 262.45 131.9 262.65 131.9 262.8 131.9 263 131.9 263.2 131.9 263.35 131.9 263.55 131.9 263.65 131.9 263.85
L 234.7 204.45 234.7 83.35
Q 234.3 83.55 233.9 83.75 232.5 84.4 227.85 86.35 223.3 88.3 218.8 90.5 217 91.35 216.2 91.25 214.85 91.15 214.1 89.95 213.45 88.75 214.1 87.5 214.5 86.8 215.4 86.2 215.95 85.8 217.05 85.15
M 123.85 140.45
L 148.6 126.15 123.85 140.45 123.85 169 123.85 140.45 99.1 126.15 123.85 140.45
M 28.4 73.5
L 122.5 20.8 217.25 73.55 124.2 122.4 28.4 73.5
M 203.8 118.2
Q 204.15 118.1 204.55 118.15 206.8 118.1 209.7 118.7 215.1 119.65 218.05 122.05 221.75 125 223.2 131 223.8 133.6 223.9 136.5 223.9 137.55 223.85 138.85 223.75 141.15 223.3 143.85 222.3 148.75 220.35 153.15 217.75 158.55 213.15 163.4 209.3 167.35 204.05 171.3 197.45 176.05 187.6 181.4 183.3 183.55 178.4 186 173.95 188.2 164.9 192.6 157.1 196.5 151.3 199.9
L 151.4 235.7
Q 151.4 237.9 151.35 239 151.05 240.9 150.5 242.35 149.7 244 148.25 245.2 146.75 246.1 145.5 246.1 145.25 246.1 145.1 246.1 143 245.85 142.1 243.45 141.3 241.4 141.4 238.4
L 140.8 182.45
Q 140.7 178.55 140.75 175.15 140.7 167.45 140.85 161.95 141.05 151.75 141.8 148.2
L 141.8 148.05
Q 141.9 146.2 142.65 145.1 143.2 144.05 144.45 143.2 145.15 142.6 146.7 141.75 153.25 137.95 161.7 134 166.65 131.55 176.45 127.25 184.35 123.6 188.55 122.3 189.3 122 190.1 121.8 192.65 120.7 194.55 120.1 199.8 118.3 203.8 118.2
M 23.3 106.55
Q 24.45 105.25 26 105 30.15 104.3 34.9 110.75 43.5 122.5 49.95 132.4 57.55 144.1 63.15 154.85 63.95 156.45 64.55 157.25 65.55 158.45 66.7 158.85 67.5 159.1 68.6 159.05 69.3 158.95 70.5 158.6 84.25 154.85 96.75 148.45 99.75 146.95 101.8 146.6 104.7 145.95 106.65 147.5 108.45 148.85 108.8 151.65 108.85 152.45 108.9 153.45 108.85 154.85 108.7 156.8 107.95 163.3 107.8 175.65
L 107.05 234.95
Q 107 238.55 106.35 240.7 105.55 243.75 103.45 245 102.25 245.65 100.95 245.75 100.2 245.7 99.4 245.6 97.2 245.2 95.9 243.5 94.7 242 94.45 239.7 94.2 238.15 94.35 235.5 96.4 199.05 96.2 162.25
L 76.15 168.65
Q 72.6 169.7 70.75 170.1 67.65 170.6 65.2 170.05 60.95 169.1 57.25 164.75 55 162 51.85 156.25 43.6 141.15 33.7 127
L 34.75 194.25
Q 34.8 196.75 34.65 198.2 34.4 200.35 33.55 201.85 32.5 203.6 30.55 204.35 28.4 205.15 26.75 204.15 25.15 203.2 24.55 200.95 24.05 199.4 24.1 196.9 24.05 171.3 23.7 156.35 23.2 134.1 21.6 115.8 21.4 113.65 21.4 112.55 21.4 110.75 21.8 109.4 22.25 107.75 23.3 106.55
M 217.1 140.8
Q 217.05 136.1 215.35 132.85 213.65 129.9 210.65 128.3 207.9 126.75 204.25 126.5 203.9 126.4 203.7 126.4 191.25 129.4 179.1 134.65 164.9 140.6 151.7 149.3
L 151.3 190.1
Q 156.65 186.85 163.4 183.65 164.75 182.85 177.8 176.95 194.95 169 204.45 161.85 207.8 159.2 210.2 156.75 213.15 153.55 214.85 150.15 217 145.6 217.1 140.8
M 122.55 23.8
L 33.9 73.45 124.15 119.5 211.8 73.5 122.55 23.8
M 41.85 73.25
L 122.55 28.05 203.8 73.3 124 115.15 41.85 73.25 Z"/>

<path fill="#FFFFFF" stroke="none" d="
M 26 105
Q 24.45 105.25 23.3 106.55 22.25 107.75 21.8 109.4 21.4 110.75 21.4 112.55 21.4 113.65 21.6 115.8 23.2 134.1 23.7 156.35 24.05 171.3 24.1 196.9 24.05 199.4 24.55 200.95 25.15 203.2 26.75 204.15 28.4 205.15 30.55 204.35 32.5 203.6 33.55 201.85 34.4 200.35 34.65 198.2 34.8 196.75 34.75 194.25
L 33.7 127
Q 43.6 141.15 51.85 156.25 55 162 57.25 164.75 60.95 169.1 65.2 170.05 67.65 170.6 70.75 170.1 72.6 169.7 76.15 168.65
L 96.2 162.25
Q 96.4 199.05 94.35 235.5 94.2 238.15 94.45 239.7 94.7 242 95.9 243.5 97.2 245.2 99.4 245.6 100.2 245.7 100.95 245.75 102.25 245.65 103.45 245 105.55 243.75 106.35 240.7 107 238.55 107.05 234.95
L 107.8 175.65
Q 107.95 163.3 108.7 156.8 108.85 154.85 108.9 153.45 108.85 152.45 108.8 151.65 108.45 148.85 106.65 147.5 104.7 145.95 101.8 146.6 99.75 146.95 96.75 148.45 84.25 154.85 70.5 158.6 69.3 158.95 68.6 159.05 67.5 159.1 66.7 158.85 65.55 158.45 64.55 157.25 63.95 156.45 63.15 154.85 57.55 144.1 49.95 132.4 43.5 122.5 34.9 110.75 30.15 104.3 26 105
M 204.55 118.15
Q 204.15 118.1 203.8 118.2 199.8 118.3 194.55 120.1 192.65 120.7 190.1 121.8 189.3 122 188.55 122.3 184.35 123.6 176.45 127.25 166.65 131.55 161.7 134 153.25 137.95 146.7 141.75 145.15 142.6 144.45 143.2 143.2 144.05 142.65 145.1 141.9 146.2 141.8 148.05
L 141.8 148.2
Q 141.05 151.75 140.85 161.95 140.7 167.45 140.75 175.15 140.7 178.55 140.8 182.45
L 141.4 238.4
Q 141.3 241.4 142.1 243.45 143 245.85 145.1 246.1 145.25 246.1 145.5 246.1 146.75 246.1 148.25 245.2 149.7 244 150.5 242.35 151.05 240.9 151.35 239 151.4 237.9 151.4 235.7
L 151.3 199.9
Q 157.1 196.5 164.9 192.6 173.95 188.2 178.4 186 183.3 183.55 187.6 181.4 197.45 176.05 204.05 171.3 209.3 167.35 213.15 163.4 217.75 158.55 220.35 153.15 222.3 148.75 223.3 143.85 223.75 141.15 223.85 138.85 223.9 137.55 223.9 136.5 223.8 133.6 223.2 131 221.75 125 218.05 122.05 215.1 119.65 209.7 118.7 206.8 118.1 204.55 118.15
M 215.35 132.85
Q 217.05 136.1 217.1 140.8 217 145.6 214.85 150.15 213.15 153.55 210.2 156.75 207.8 159.2 204.45 161.85 194.95 169 177.8 176.95 164.75 182.85 163.4 183.65 156.65 186.85 151.3 190.1
L 151.7 149.3
Q 164.9 140.6 179.1 134.65 191.25 129.4 203.7 126.4 203.9 126.4 204.25 126.5 207.9 126.75 210.65 128.3 213.65 129.9 215.35 132.85
M 122.5 20.8
L 28.4 73.5 124.2 122.4 217.25 73.55 122.5 20.8
M 33.9 73.45
L 122.55 23.8 211.8 73.5 124.15 119.5 33.9 73.45
M 122.55 28.05
L 41.85 73.25 124 115.15 203.8 73.3 122.55 28.05 Z"/>
</g>

<path id="Layer0_0_1_STROKES" stroke="url(#Gradient_2)" stroke-width="12" stroke-linejoin="round" stroke-linecap="round" fill="none" d="
M 99.1 126.15
L 123.85 140.45 148.6 126.15
M 123.85 140.45
L 123.85 169"/>
</defs>

<g transform="matrix( 1, 0, 0, 1, 18,0) ">
<g transform="matrix( 1, 0, 0, 1, 0,0) ">
<use xlink:href="#Layer0_0_FILL"/>

<use xlink:href="#Layer0_0_1_STROKES"/>
</g>
</g>
</svg>
